<svg id="wave" style="transform:rotate(0deg); transition: 0.3s" viewBox="0 0 1440 340" version="1.1"
    xmlns="http://www.w3.org/2000/svg">
    <defs>
        <linearGradient id="sw-gradient-0" x1="0" x2="0" y1="1" y2="0">
            <stop stop-color="rgba(0, 56, 253, 1)" offset="0%"></stop>
            <stop stop-color="rgba(0, 56, 253, 1)" offset="100%"></stop>
        </linearGradient>
    </defs>
    <path style="transform:translate(0, 0px); opacity:1" fill="url(#sw-gradient-0)"
        d="M0,136L30,147.3C60,159,120,181,180,170C240,159,300,113,360,85C420,57,480,45,540,45.3C600,45,660,57,720,68C780,79,840,91,900,119C960,147,1020,193,1080,187C1140,181,1200,125,1260,119C1320,113,1380,159,1440,158.7C1500,159,1560,113,1620,96.3C1680,79,1740,91,1800,113.3C1860,136,1920,170,1980,158.7C2040,147,2100,91,2160,62.3C2220,34,2280,34,2340,45.3C2400,57,2460,79,2520,90.7C2580,102,2640,102,2700,113.3C2760,125,2820,147,2880,181.3C2940,215,3000,261,3060,238C3120,215,3180,125,3240,107.7C3300,91,3360,147,3420,187C3480,227,3540,249,3600,243.7C3660,238,3720,204,3780,204C3840,204,3900,238,3960,260.7C4020,283,4080,295,4140,300.3C4200,306,4260,306,4290,306L4320,306L4320,340L4290,340C4260,340,4200,340,4140,340C4080,340,4020,340,3960,340C3900,340,3840,340,3780,340C3720,340,3660,340,3600,340C3540,340,3480,340,3420,340C3360,340,3300,340,3240,340C3180,340,3120,340,3060,340C3000,340,2940,340,2880,340C2820,340,2760,340,2700,340C2640,340,2580,340,2520,340C2460,340,2400,340,2340,340C2280,340,2220,340,2160,340C2100,340,2040,340,1980,340C1920,340,1860,340,1800,340C1740,340,1680,340,1620,340C1560,340,1500,340,1440,340C1380,340,1320,340,1260,340C1200,340,1140,340,1080,340C1020,340,960,340,900,340C840,340,780,340,720,340C660,340,600,340,540,340C480,340,420,340,360,340C300,340,240,340,180,340C120,340,60,340,30,340L0,340Z"></path>
</svg>