<svg id="wave" style="transform:rotate(180deg); transition: 0.3s" viewBox="0 0 1440 150"
    version="1.1" xmlns="http://www.w3.org/2000/svg">
    <defs>
        <linearGradient id="sw-gradient-0" x1="0" x2="0" y1="1" y2="0">
            <stop stop-color="rgba(0, 56, 253, 1)" offset="0%"></stop>
            <stop stop-color="rgba(0, 56, 253, 1)" offset="100%"></stop>
        </linearGradient>
    </defs>
    <path style="transform:translate(0, 0px); opacity:1" fill="url(#sw-gradient-0)"
        d="M0,120L10.9,115C21.8,110,44,100,65,85C87.3,70,109,50,131,37.5C152.7,25,175,20,196,30C218.2,40,240,65,262,75C283.6,85,305,80,327,70C349.1,60,371,45,393,55C414.5,65,436,100,458,112.5C480,125,502,115,524,97.5C545.5,80,567,55,589,42.5C610.9,30,633,30,655,37.5C676.4,45,698,60,720,60C741.8,60,764,45,785,35C807.3,25,829,20,851,27.5C872.7,35,895,55,916,70C938.2,85,960,95,982,92.5C1003.6,90,1025,75,1047,75C1069.1,75,1091,90,1113,90C1134.5,90,1156,75,1178,75C1200,75,1222,90,1244,102.5C1265.5,115,1287,125,1309,127.5C1330.9,130,1353,125,1375,107.5C1396.4,90,1418,60,1440,60C1461.8,60,1484,90,1505,105C1527.3,120,1549,120,1560,120L1570.9,120L1570.9,150L1560,150C1549.1,150,1527,150,1505,150C1483.6,150,1462,150,1440,150C1418.2,150,1396,150,1375,150C1352.7,150,1331,150,1309,150C1287.3,150,1265,150,1244,150C1221.8,150,1200,150,1178,150C1156.4,150,1135,150,1113,150C1090.9,150,1069,150,1047,150C1025.5,150,1004,150,982,150C960,150,938,150,916,150C894.5,150,873,150,851,150C829.1,150,807,150,785,150C763.6,150,742,150,720,150C698.2,150,676,150,655,150C632.7,150,611,150,589,150C567.3,150,545,150,524,150C501.8,150,480,150,458,150C436.4,150,415,150,393,150C370.9,150,349,150,327,150C305.5,150,284,150,262,150C240,150,218,150,196,150C174.5,150,153,150,131,150C109.1,150,87,150,65,150C43.6,150,22,150,11,150L0,150Z"></path>
</svg>